<?xml version="1.0" encoding="utf-8"?>
<!-- Generator: Adobe Illustrator 23.1.0, SVG Export Plug-In . SVG Version: 6.00 Build 0)  -->
<svg version="1.1" xmlns="http://www.w3.org/2000/svg" xmlns:xlink="http://www.w3.org/1999/xlink" x="0px" y="0px"
	 viewBox="0 0 246.4 245.9" style="enable-background:new 0 0 246.4 245.9;" xml:space="preserve">
<style type="text/css">
	.st0{display:none;}
	.st1{fill:#231F20;}
</style>
<g id="Layer_1" class="st0">
	
		<image style="display:inline;overflow:visible;opacity:0.5;" width="630" height="630" xlink:href="logo_gizmonic.jpg"  transform="matrix(0.4804 0 0 0.4804 155 244.6584)">
	</image>
</g>
<g id="Layer_2">
	<path class="st1" d="M130.1,114.9h116.3v16.8h-9.7c0,0,0.4,2.1-1.4,12.5l8.8,2.5l-4.1,16.1l-9-2.3c0,0-1.2,3.9-4.4,11.2l7.9,5
		l-9,14.8l-7.8-4.5c0,0-3.8,6.5-8.1,10.4l6.6,6.4l-11.9,11.7l-6.5-6.1c0,0-3.4,3.9-10.3,7.8l4.7,7.9l-14.4,8.5l-5.1-7.7
		c0,0-3.2,2.3-11.7,4.5c-8.6,2.2-0.1,0-0.1,0l2.5,9.1l-16.2,4.4l-2.7-8.6c0,0-6.4,1.1-12.6,1.4l-0.1,9.1H115v-9.1
		c0,0-6.9,0-12.8-1.5l-2.6,8.8l-16.5-4.5l2.5-8.4c0,0-7.4-2.6-11.8-5.1l-4.8,7.7l-14.8-8.4l4.5-7.6c0,0-7.4-5.1-10.2-7.9l-6.1,6.4
		l-12.3-12.5l6.4-6c0,0-4.8-4.4-8-10.1l-7.5,4.4l-8.6-14.6l7.4-4.4c0,0-3.6-7.5-4.8-12.4l-8.4,2.5l-4.6-16.6l8.4-2.4
		c0,0-1.6-3.3-1.8-12.8l-8.4-0.1L0,114.9h8.7c0,0,0.4-7.2,1.4-13.3l-7.9-2.2l4.3-16l8.1,1.8c0,0,0.6-4.5,5-12.1l-7.6-4.2L20.7,54
		l7.3,4.1c0,0,1.8-2.9,7.7-10.3l-6-5.9L42,30l6,5.9c0,0,2.9-3.1,10.2-7.8L54,20.8L68.8,12l4.3,7.3c0,0,5.2-2.9,12.2-4.6l-2.5-8.8
		l16.4-3.7l2.1,7.8c0,0,3.9-1.2,13.4-1.3L114.5,0h16.8l0,8.3c0,0,8.2,0.4,13.2,1.8l2.3-8.1l16,4.5l-1.9,8.1c0,0,4.9,1.5,12.1,5.2
		l4.2-7.6l14.5,8.4l-4,7.2c0,0,8.1,5.8,10,8.4l6.5-6.3l12,12l-6.4,5.9c0,0,5.6,6.4,8,10.7l7.6-4.4l8.6,14.5l-7.8,4.5
		c0,0,2.9,5.7,4.7,11.8l8.7-2l4.5,16.4l-52.6,10.4c0,0-12.6-56.4-68.4-56.4s-70.5,44.3-70.5,69.9c0,28,18,69.9,67.8,69.9
		c49.6,0,67-43.6,67-43.6l-57.3-0.4L130.1,114.9z"/>
</g>
</svg>
